<?xml version="1.0" standalone="no"?>
<!DOCTYPE svg PUBLIC "-//W3C//DTD SVG 20010904//EN"
 "http://www.w3.org/TR/2001/REC-SVG-20010904/DTD/svg10.dtd">
<svg version="1.0" xmlns="http://www.w3.org/2000/svg"
 width="512.000000pt" height="512.000000pt" viewBox="0 0 512.000000 512.000000"
 preserveAspectRatio="xMidYMid meet">

<g transform="translate(0.000000,512.000000) scale(0.100000,-0.100000)"
fill="#000000" stroke="none">
<path d="M1745 4976 c-89 -41 -142 -131 -133 -224 l5 -48 -403 -292 -402 -292
-43 20 c-78 35 -182 17 -248 -43 -36 -33 -71 -115 -71 -167 0 -50 29 -122 64
-160 l23 -25 -155 -477 c-139 -425 -158 -478 -176 -478 -31 0 -118 -44 -143
-71 -34 -37 -63 -110 -63 -159 0 -52 35 -134 71 -167 29 -26 106 -62 135 -63
18 0 38 -54 176 -477 l155 -478 -23 -25 c-64 -69 -80 -171 -40 -255 28 -61 56
-87 120 -116 56 -25 131 -22 185 6 l32 16 127 -92 c155 -113 172 -121 209 -93
29 22 39 50 29 88 -3 13 -58 60 -141 120 -95 69 -135 103 -131 113 3 8 6 20 6
27 0 6 56 26 133 45 l132 34 48 -36 c48 -36 100 -57 147 -57 23 0 35 -22 153
-282 70 -155 126 -283 124 -284 -1 -1 -49 31 -105 72 -126 91 -143 99 -182 79
-32 -16 -46 -51 -36 -88 3 -14 56 -60 149 -127 l144 -104 -5 -48 c-5 -56 17
-123 56 -170 35 -41 116 -78 172 -78 81 0 185 66 205 130 6 20 15 20 515 20
500 0 509 0 515 -20 20 -64 124 -130 205 -130 52 0 134 35 167 71 41 45 66
117 60 173 l-5 51 404 294 405 293 49 -21 c27 -12 68 -21 92 -21 49 0 133 36
165 71 34 37 63 110 63 159 0 50 -35 134 -69 164 -11 11 -21 24 -21 30 0 6 68
221 152 478 135 416 154 468 172 468 31 0 118 44 143 71 34 37 63 110 63 159
0 49 -29 122 -63 159 -25 27 -112 71 -143 71 -18 0 -37 52 -172 468 -84 257
-152 472 -152 478 0 6 10 19 21 30 34 30 69 114 69 164 0 49 -29 122 -63 159
-32 35 -116 71 -165 71 -24 0 -65 -9 -92 -21 l-49 -21 -126 91 c-70 51 -137
97 -149 103 -50 22 -107 -35 -93 -94 4 -13 28 -39 54 -58 207 -147 233 -169
224 -192 -6 -18 -31 -28 -147 -58 l-139 -37 -18 23 c-26 35 -100 75 -152 82
l-46 7 -125 274 c-68 151 -123 275 -121 277 1 1 52 -33 112 -77 61 -44 120
-82 133 -86 52 -13 100 39 86 93 -4 16 -53 58 -154 131 l-148 108 5 51 c6 56
-19 128 -60 173 -33 36 -115 71 -167 71 -81 0 -185 -66 -205 -130 -6 -20 -15
-20 -515 -20 -500 0 -509 0 -515 20 -20 64 -124 130 -205 130 -26 0 -66 -10
-95 -24z m150 -151 c50 -49 15 -135 -55 -135 -41 0 -80 39 -80 80 0 41 39 80
80 80 19 0 40 -9 55 -25z m1440 0 c16 -15 25 -36 25 -55 0 -19 -9 -40 -25 -55
-15 -16 -36 -25 -55 -25 -19 0 -40 9 -55 25 -16 15 -25 36 -25 55 0 19 9 40
25 55 15 16 36 25 55 25 19 0 40 -9 55 -25z m-355 -148 c-19 -13 -87 -56 -151
-95 l-116 -72 -54 25 c-70 32 -128 32 -198 0 l-53 -25 -92 57 c-50 32 -118 74
-150 95 l-59 38 454 0 454 0 -35 -23z m-818 -190 l163 -103 3 -45 3 -44 -396
-194 c-217 -107 -397 -192 -399 -190 -2 2 60 143 138 313 l141 309 55 12 c30
6 69 18 85 28 17 9 33 16 37 17 4 0 80 -46 170 -103z m1001 86 c18 -9 57 -22
87 -28 l55 -12 137 -299 c132 -288 148 -330 129 -322 -5 2 -182 89 -395 193
l-387 190 3 44 3 45 165 103 c90 57 166 103 168 103 1 0 17 -8 35 -17z m-1637
-314 l-125 -274 -51 -7 c-60 -9 -96 -27 -145 -69 l-35 -31 -129 33 c-119 31
-130 36 -134 59 -3 14 -2 29 2 33 15 16 736 536 738 533 2 -2 -53 -126 -121
-277z m1089 126 c16 -15 25 -36 25 -55 0 -19 -9 -40 -25 -55 -49 -50 -135 -15
-135 55 0 41 39 80 80 80 19 0 40 -9 55 -25z m-177 -247 l42 -23 0 -161 0
-162 -30 -12 c-17 -7 -47 -32 -68 -55 l-37 -43 -335 49 c-184 26 -344 49 -355
51 -12 2 135 80 355 190 206 102 377 187 380 187 3 1 24 -9 48 -21z m668 -165
c207 -103 373 -188 368 -190 -5 -2 -166 -25 -359 -53 -241 -35 -351 -47 -354
-39 -8 24 -62 77 -91 89 l-30 12 0 162 0 161 38 21 c20 12 40 22 43 23 4 1
177 -83 385 -186z m-2371 12 c50 -49 15 -135 -55 -135 -41 0 -80 39 -80 80 0
41 39 80 80 80 19 0 40 -9 55 -25z m3770 0 c16 -15 25 -36 25 -55 0 -19 -9
-40 -25 -55 -15 -16 -36 -25 -55 -25 -19 0 -40 9 -55 25 -16 15 -25 36 -25 55
0 19 9 40 25 55 15 16 36 25 55 25 19 0 40 -9 55 -25z m-3080 -180 c50 -49 15
-135 -55 -135 -41 0 -80 39 -80 80 0 41 39 80 80 80 19 0 40 -9 55 -25z m2370
0 c16 -15 25 -36 25 -55 0 -19 -9 -40 -25 -55 -15 -16 -36 -25 -55 -25 -19 0
-40 9 -55 25 -16 15 -25 36 -25 55 0 19 9 40 25 55 15 16 36 25 55 25 19 0 40
-9 55 -25z m-2792 -39 c71 -19 130 -36 131 -38 1 -2 10 -25 20 -51 10 -26 28
-60 41 -75 l23 -28 -158 -349 c-87 -193 -162 -356 -167 -364 -5 -8 -30 161
-62 425 -42 345 -51 439 -41 442 9 3 85 67 85 72 0 0 58 -16 128 -34z m3296
-7 l44 -39 -54 -440 c-29 -242 -56 -436 -60 -432 -4 4 -80 170 -168 368 l-162
362 26 37 c14 21 30 55 36 75 l11 38 132 35 c72 20 136 36 141 36 6 0 30 -18
54 -40z m-1684 -124 c16 -15 25 -36 25 -55 0 -19 -9 -40 -25 -55 -49 -50 -135
-15 -135 55 0 41 39 80 80 80 19 0 40 -9 55 -25z m-678 -45 c197 -28 368 -52
379 -55 13 -3 24 -16 28 -31 6 -24 -6 -40 -118 -154 -138 -139 -148 -159 -101
-205 46 -47 66 -37 205 100 69 69 131 125 138 125 9 0 12 -73 12 -299 0 -291
-1 -300 -20 -306 -33 -11 -80 -55 -101 -96 l-19 -39 -291 0 c-256 0 -290 2
-296 16 -4 11 31 53 121 143 112 112 126 130 126 160 0 46 -24 71 -69 71 -32
0 -47 -12 -162 -126 -113 -113 -128 -125 -152 -119 -16 5 -29 16 -32 29 -3 11
-27 182 -55 378 l-51 356 48 50 c26 28 49 50 50 51 2 1 164 -22 360 -49z
m1636 6 c23 -24 48 -45 55 -47 11 -4 3 -78 -37 -364 -28 -198 -53 -370 -56
-381 -3 -13 -16 -24 -32 -29 -25 -6 -53 20 -380 347 -316 315 -353 356 -348
378 4 14 8 27 10 28 3 3 476 74 738 111 4 1 26 -19 50 -43z m-2842 -834 c-26
-9 -73 -56 -92 -93 l-19 -39 -85 0 -84 0 -17 33 c-9 17 -27 44 -40 58 l-24 26
131 404 c72 222 134 409 137 414 4 6 29 -172 56 -394 37 -305 47 -406 37 -409z
m3887 391 l132 -407 -24 -25 c-13 -14 -31 -41 -40 -58 l-17 -33 -84 0 -85 0
-19 39 c-19 36 -66 84 -92 93 -8 3 2 114 37 401 27 218 51 397 54 397 3 0 66
-183 138 -407z m-3228 -46 l48 -332 -39 -34 c-22 -18 -49 -51 -60 -72 l-19
-39 -130 0 -129 0 -17 33 c-9 17 -23 39 -31 48 -12 15 3 54 133 340 81 178
156 344 167 369 11 25 22 39 25 32 2 -8 26 -163 52 -345z m2564 -18 c136 -303
162 -367 151 -379 -7 -8 -20 -30 -29 -47 l-17 -33 -129 0 -130 0 -19 39 c-11
21 -38 54 -60 72 l-39 34 49 335 c26 184 49 339 49 344 0 5 2 7 5 4 3 -3 79
-169 169 -369z m-935 -73 c256 -256 352 -358 348 -370 -6 -14 -40 -16 -296
-16 l-291 0 -19 39 c-21 41 -68 85 -101 96 -19 6 -20 15 -20 306 0 233 3 299
13 299 6 0 171 -159 366 -354z m-2734 -401 c50 -49 15 -135 -55 -135 -41 0
-80 39 -80 80 0 41 39 80 80 80 19 0 40 -9 55 -25z m610 0 c16 -15 25 -36 25
-55 0 -19 -9 -40 -25 -55 -15 -16 -36 -25 -55 -25 -19 0 -40 9 -55 25 -50 49
-15 135 55 135 19 0 40 -9 55 -25z m700 0 c50 -49 15 -135 -55 -135 -19 0 -40
9 -55 25 -50 49 -15 135 55 135 19 0 40 -9 55 -25z m1020 0 c50 -49 15 -135
-55 -135 -19 0 -40 9 -55 25 -50 49 -15 135 55 135 19 0 40 -9 55 -25z m1020
0 c50 -49 15 -135 -55 -135 -41 0 -80 39 -80 80 0 19 9 40 25 55 15 16 36 25
55 25 19 0 40 -9 55 -25z m700 0 c50 -49 15 -135 -55 -135 -41 0 -80 39 -80
80 0 19 9 40 25 55 15 16 36 25 55 25 19 0 40 -9 55 -25z m610 0 c50 -49 15
-135 -55 -135 -41 0 -80 39 -80 80 0 19 9 40 25 55 15 16 36 25 55 25 19 0 40
-9 55 -25z m-4305 -165 c12 -29 66 -84 90 -92 9 -3 1 -101 -36 -401 -27 -218
-51 -397 -54 -397 -3 0 -66 183 -138 406 l-132 406 29 34 c16 18 32 42 36 53
6 19 14 21 99 21 l94 0 12 -30z m703 -4 c8 -19 33 -48 55 -65 l38 -31 -46
-328 c-59 -409 -52 -377 -77 -322 -11 25 -86 190 -166 367 l-147 323 25 36
c14 20 25 41 25 45 0 5 62 9 138 9 l138 0 17 -34z m1017 4 c14 -33 68 -85 99
-95 21 -6 21 -12 21 -306 0 -232 -3 -299 -12 -299 -17 0 -718 701 -718 717 0
10 66 13 299 13 l299 0 12 -30z m1010 18 c0 -17 -701 -718 -717 -718 -10 0
-13 66 -13 299 l0 299 30 12 c33 14 85 68 95 99 6 21 12 21 306 21 232 0 299
-3 299 -12z m700 3 c0 -4 11 -24 24 -44 l25 -36 -156 -343 c-85 -189 -160
-354 -166 -368 -14 -33 -10 -49 -67 342 l-46 328 38 31 c22 17 47 46 55 65
l17 34 138 0 c76 0 138 -4 138 -9z m615 -12 c4 -11 20 -35 36 -53 l29 -34
-132 -406 c-72 -223 -135 -406 -139 -406 -3 0 -10 32 -13 71 -4 39 -12 82 -18
94 -15 33 -62 51 -94 37 -45 -21 -49 -47 -29 -212 11 -89 14 -154 9 -158 -5
-4 -25 -22 -45 -40 l-36 -33 -140 36 -139 37 -12 42 c-6 22 -22 57 -35 77
l-25 37 140 308 c76 170 151 334 165 364 l26 55 17 -133 c20 -149 31 -172 87
-172 43 0 73 30 73 73 0 17 -7 95 -17 171 -13 113 -14 141 -4 144 25 8 79 62
91 92 l12 30 94 0 c85 0 93 -2 99 -21z m-2687 -462 c327 -327 353 -355 347
-380 -4 -16 -16 -29 -29 -32 -11 -3 -183 -27 -381 -55 -274 -38 -361 -47 -364
-37 -2 6 -23 31 -47 54 l-44 42 52 372 c48 337 54 372 73 380 11 4 25 8 30 8
6 1 169 -158 363 -352z m1533 335 c3 -4 29 -173 58 -377 40 -287 49 -371 39
-374 -16 -5 -83 -72 -89 -88 -3 -8 -101 2 -359 38 -195 27 -365 51 -376 54
-13 3 -24 16 -29 32 -6 25 20 53 347 380 315 316 356 353 378 348 14 -4 28 -9
31 -13z m-2476 -426 c129 -285 156 -352 146 -365 -21 -29 -61 -116 -61 -133 0
-11 -13 -21 -37 -27 -21 -6 -80 -22 -132 -35 l-94 -25 -37 33 c-21 18 -43 35
-50 38 -11 3 -3 92 40 441 29 241 56 434 60 430 4 -4 79 -165 165 -357z m1560
-311 c50 -49 15 -135 -55 -135 -19 0 -40 9 -55 25 -16 15 -25 36 -25 55 0 19
9 40 25 55 15 16 36 25 55 25 19 0 40 -9 55 -25z m-1190 -160 c50 -49 15 -135
-55 -135 -19 0 -40 9 -55 25 -16 15 -25 36 -25 55 0 19 9 40 25 55 15 16 36
25 55 25 19 0 40 -9 55 -25z m2370 0 c50 -49 15 -135 -55 -135 -41 0 -80 39
-80 80 0 41 39 80 80 80 19 0 40 -9 55 -25z m-1435 -5 c0 -18 60 -77 90 -90
l30 -12 0 -162 0 -161 -43 -23 -43 -23 -379 188 c-225 111 -372 189 -361 191
21 4 673 99 694 101 6 0 12 -3 12 -9z m785 -46 c181 -25 331 -47 333 -49 1 -1
-167 -86 -375 -189 l-377 -187 -43 23 -43 23 0 161 0 162 30 12 c31 13 90 73
90 91 0 6 11 8 28 5 15 -3 175 -26 357 -52z m-2410 -139 c16 -15 25 -36 25
-55 0 -19 -9 -40 -25 -55 -49 -50 -135 -15 -135 55 0 41 39 80 80 80 19 0 40
-9 55 -25z m3770 0 c50 -49 15 -135 -55 -135 -41 0 -80 39 -80 80 0 41 39 80
80 80 19 0 40 -9 55 -25z m-284 -93 c10 -25 45 3 -460 -364 -157 -114 -287
-205 -288 -204 -2 1 54 129 124 283 l128 281 44 6 c47 6 114 41 144 74 18 20
19 20 159 -17 119 -31 143 -41 149 -59z m-1893 -372 l-3 -44 -100 -63 c-55
-35 -130 -81 -167 -104 l-66 -40 -43 21 c-23 12 -63 25 -88 29 l-45 6 -143
314 c-79 172 -143 315 -143 316 0 2 180 -85 400 -193 l401 -197 -3 -45z m1210
318 c-29 -62 -93 -203 -143 -313 l-91 -200 -44 -7 c-25 -4 -66 -17 -91 -29
l-45 -21 -165 104 -164 104 -3 45 -3 44 388 192 c213 105 393 192 400 192 6 1
-11 -49 -39 -111z m-923 -253 c50 -49 15 -135 -55 -135 -19 0 -40 9 -55 25
-16 15 -25 36 -25 55 0 19 9 40 25 55 15 16 36 25 55 25 19 0 40 -9 55 -25z
m-153 -260 c69 -32 127 -32 197 0 l53 25 148 -92 149 -93 -225 -3 c-123 -1
-325 -1 -448 0 l-224 3 146 92 c81 51 148 93 149 93 0 0 25 -11 55 -25z m-567
-180 c50 -49 15 -135 -55 -135 -41 0 -80 39 -80 80 0 41 39 80 80 80 19 0 40
-9 55 -25z m1440 0 c50 -49 15 -135 -55 -135 -41 0 -80 39 -80 80 0 41 39 80
80 80 19 0 40 -9 55 -25z"/>
</g>
</svg>
